{"asset":{"version":"2.0","generator":"Blockbench 4.10.3 glTF exporter"},"scenes":[{"nodes":[1],"name":"blockbench_export"}],"scene":0,"nodes":[{"rotation":[6.123233995736766e-17,-1,6.123233995736766e-17,8.587185787711147e-17],"translation":[0,0.5625,0.25],"name":"cuboid","mesh":0},{"children":[0]}],"bufferViews":[{"buffer":0,"byteOffset":0,"byteLength":5856,"target":34962,"byteStride":12},{"buffer":0,"byteOffset":5856,"byteLength":5856,"target":34962,"byteStride":12},{"buffer":0,"byteOffset":11712,"byteLength":3904,"target":34962,"byteStride":8},{"buffer":0,"byteOffset":15616,"byteLength":1464,"target":34963}],"buffers":[{"byteLength":17080,"uri":"data:application/octet-stream;base64,"}],"accessors":[{"bufferView":0,"componentType":5126,"count":488,"max":[0.3125,0.5625,0.1875],"min":[-0.3125,-0.625,-0.5],"type":"VEC3"},{"bufferView":1,"componentType":5126,"count":488,"max":[1,1,1],"min":[-1,-1,-1],"type":"VEC3"},{"bufferView":2,"componentType":5126,"count":488,"max":[0.515625,0.5625],"min":[0,0],"type":"VEC2"},{"bufferView":3,"componentType":5123,"count":732,"max":[487],"min":[0],"type":"SCALAR"}],"materials":[{"pbrMetallicRoughness":{"metallicFactor":0,"roughnessFactor":1,"baseColorTexture":{"index":0}},"alphaMode":"MASK","alphaCutoff":0.05,"doubleSided":true}],"textures":[{"sampler":0,"source":0,"name":"chair_pro_texture"}],"samplers":[{"magFilter":9728,"minFilter":9728,"wrapS":33071,"wrapT":33071}],"images":[{"mimeType":"image/png","uri":"data:image/png;base64,"}],"meshes":[{"primitives":[{"mode":4,"attributes":{"POSITION":0,"NORMAL":1,"TEXCOORD_0":2},"indices":3,"material":0}]}]}