{"asset":{"version":"2.0","generator":"Blockbench 4.10.3 glTF exporter"},"scenes":[{"nodes":[4],"name":"blockbench_export"}],"scene":0,"nodes":[{"translation":[0,1.75,0],"name":"cuboid","mesh":0},{"translation":[0.4375,0,-0.25],"name":"cuboid","mesh":1},{"translation":[-0.5,0,-0.25],"name":"cuboid","mesh":2},{"translation":[0.0625,0.84375,-0.03125],"name":"cuboid","mesh":3},{"children":[0,1,2,3]}],"bufferViews":[{"buffer":0,"byteOffset":0,"byteLength":1056,"target":34962,"byteStride":12},{"buffer":0,"byteOffset":1056,"byteLength":1056,"target":34962,"byteStride":12},{"buffer":0,"byteOffset":2112,"byteLength":704,"target":34962,"byteStride":8},{"buffer":0,"byteOffset":2816,"byteLength":264,"target":34963},{"buffer":0,"byteOffset":3080,"byteLength":12288,"target":34962,"byteStride":12},{"buffer":0,"byteOffset":15368,"byteLength":12288,"target":34962,"byteStride":12},{"buffer":0,"byteOffset":27656,"byteLength":8192,"target":34962,"byteStride":8},{"buffer":0,"byteOffset":35848,"byteLength":3072,"target":34963},{"buffer":0,"byteOffset":38920,"byteLength":6432,"target":34962,"byteStride":12},{"buffer":0,"byteOffset":45352,"byteLength":6432,"target":34962,"byteStride":12},{"buffer":0,"byteOffset":51784,"byteLength":4288,"target":34962,"byteStride":8},{"buffer":0,"byteOffset":56072,"byteLength":1608,"target":34963},{"buffer":0,"byteOffset":57680,"byteLength":288,"target":34962,"byteStride":12},{"buffer":0,"byteOffset":57968,"byteLength":288,"target":34962,"byteStride":12},{"buffer":0,"byteOffset":58256,"byteLength":192,"target":34962,"byteStride":8},{"buffer":0,"byteOffset":58448,"byteLength":72,"target":34963}],"buffers":[{"byteLength":58520,"uri":"data:application/octet-stream;base64,"}],"accessors":[{"bufferView":0,"componentType":5126,"count":88,"max":[0.9375,0.125,0.09375],"min":[-0.5625,-1.75,-0.03125],"type":"VEC3"},{"bufferView":1,"componentType":5126,"count":88,"max":[1,1,1],"min":[-1,-1,-1],"type":"VEC3"},{"bufferView":2,"componentType":5126,"count":88,"max":[0.53125,0.5703125],"min":[0.1015625,0],"type":"VEC2"},{"bufferView":3,"componentType":5123,"count":132,"max":[87],"min":[0],"type":"SCALAR"},{"bufferView":4,"componentType":5126,"count":1024,"max":[0.4375,1.8125,0.40625],"min":[-0.4375,0,0.28125],"type":"VEC3"},{"bufferView":5,"componentType":5126,"count":1024,"max":[1,1,1],"min":[-1,-1,-1],"type":"VEC3"},{"bufferView":6,"componentType":5126,"count":1024,"max":[0.453125,0.5546875],"min":[0,0],"type":"VEC2"},{"bufferView":7,"componentType":5123,"count":1536,"max":[1023],"min":[0],"type":"SCALAR"},{"bufferView":8,"componentType":5126,"count":536,"max":[0.4375,1.8125,0.40625],"min":[0,0,0.28125],"type":"VEC3"},{"bufferView":9,"componentType":5126,"count":536,"max":[1,1,1],"min":[-1,-1,-1],"type":"VEC3"},{"bufferView":10,"componentType":5126,"count":536,"max":[0.3984375,0.5546875],"min":[0,0],"type":"VEC2"},{"bufferView":11,"componentType":5123,"count":804,"max":[535],"min":[0],"type":"SCALAR"},{"bufferView":12,"componentType":5126,"count":24,"max":[0.0625,0.125,0.0625],"min":[-0.0625,0,-0.0625],"type":"VEC3"},{"bufferView":13,"componentType":5126,"count":24,"max":[1,1,1],"min":[-1,-1,-1],"type":"VEC3"},{"bufferView":14,"componentType":5126,"count":24,"max":[0.140625,0.140625],"min":[0.125,0.015625],"type":"VEC2"},{"bufferView":15,"componentType":5123,"count":36,"max":[23],"min":[0],"type":"SCALAR"}],"materials":[{"pbrMetallicRoughness":{"metallicFactor":0,"roughnessFactor":1,"baseColorTexture":{"index":0}},"alphaMode":"MASK","alphaCutoff":0.05,"doubleSided":true}],"textures":[{"sampler":0,"source":0,"name":"texture"}],"samplers":[{"magFilter":9728,"minFilter":9728,"wrapS":33071,"wrapT":33071}],"images":[{"mimeType":"image/png","uri":"data:image/png;base64,"}],"meshes":[{"primitives":[{"mode":4,"attributes":{"POSITION":0,"NORMAL":1,"TEXCOORD_0":2},"indices":3,"material":0}]},{"primitives":[{"mode":4,"attributes":{"POSITION":4,"NORMAL":5,"TEXCOORD_0":6},"indices":7,"material":0}]},{"primitives":[{"mode":4,"attributes":{"POSITION":8,"NORMAL":9,"TEXCOORD_0":10},"indices":11,"material":0}]},{"primitives":[{"mode":4,"attributes":{"POSITION":12,"NORMAL":13,"TEXCOORD_0":14},"indices":15,"material":0}]}]}