{"asset":{"version":"2.0","generator":"Blockbench 4.10.3 glTF exporter"},"scenes":[{"nodes":[3],"name":"blockbench_export"}],"scene":0,"nodes":[{"translation":[0,1.75,0.4375],"name":"cuboid","mesh":0},{"translation":[0,0,0.875],"name":"cuboid","mesh":1},{"translation":[-0.375,0.8125,0.40625],"name":"cuboid","mesh":2},{"children":[0,1,2]}],"bufferViews":[{"buffer":0,"byteOffset":0,"byteLength":864,"target":34962,"byteStride":12},{"buffer":0,"byteOffset":864,"byteLength":864,"target":34962,"byteStride":12},{"buffer":0,"byteOffset":1728,"byteLength":576,"target":34962,"byteStride":8},{"buffer":0,"byteOffset":2304,"byteLength":216,"target":34963},{"buffer":0,"byteOffset":2520,"byteLength":8544,"target":34962,"byteStride":12},{"buffer":0,"byteOffset":11064,"byteLength":8544,"target":34962,"byteStride":12},{"buffer":0,"byteOffset":19608,"byteLength":5696,"target":34962,"byteStride":8},{"buffer":0,"byteOffset":25304,"byteLength":2136,"target":34963},{"buffer":0,"byteOffset":27440,"byteLength":240,"target":34962,"byteStride":12},{"buffer":0,"byteOffset":27680,"byteLength":240,"target":34962,"byteStride":12},{"buffer":0,"byteOffset":27920,"byteLength":160,"target":34962,"byteStride":8},{"buffer":0,"byteOffset":28080,"byteLength":60,"target":34963}],"buffers":[{"byteLength":28140,"uri":"data:application/octet-stream;base64,"}],"accessors":[{"bufferView":0,"componentType":5126,"count":72,"max":[0.5,0.125,0.09375],"min":[-0.5,-1.75,-0.03125],"type":"VEC3"},{"bufferView":1,"componentType":5126,"count":72,"max":[1,1,1],"min":[-1,-1,-1],"type":"VEC3"},{"bufferView":2,"componentType":5126,"count":72,"max":[0.875,0.984375],"min":[0.0625,0],"type":"VEC2"},{"bufferView":3,"componentType":5123,"count":108,"max":[71],"min":[0],"type":"SCALAR"},{"bufferView":4,"componentType":5126,"count":712,"max":[0.4375,1.8125,-0.34375],"min":[-0.4375,0,-0.40625],"type":"VEC3"},{"bufferView":5,"componentType":5126,"count":712,"max":[1,1,0],"min":[-1,-1,-1],"type":"VEC3"},{"bufferView":6,"componentType":5126,"count":712,"max":[0.75,0.90625],"min":[0.234375,0],"type":"VEC2"},{"bufferView":7,"componentType":5123,"count":1068,"max":[711],"min":[0],"type":"SCALAR"},{"bufferView":8,"componentType":5126,"count":20,"max":[0.0625,0.125,0.0625],"min":[-0.0625,0,-0.0625],"type":"VEC3"},{"bufferView":9,"componentType":5126,"count":20,"max":[1,1,0],"min":[-1,-1,-1],"type":"VEC3"},{"bufferView":10,"componentType":5126,"count":20,"max":[0.6875,0.5625],"min":[0.53125,0.296875],"type":"VEC2"},{"bufferView":11,"componentType":5123,"count":30,"max":[19],"min":[0],"type":"SCALAR"}],"materials":[{"pbrMetallicRoughness":{"metallicFactor":0,"roughnessFactor":1,"baseColorTexture":{"index":0}},"alphaMode":"MASK","alphaCutoff":0.05,"doubleSided":true}],"textures":[{"sampler":0,"source":0,"name":"texture"}],"samplers":[{"magFilter":9728,"minFilter":9728,"wrapS":33071,"wrapT":33071}],"images":[{"mimeType":"image/png","uri":"data:image/png;base64,"}],"meshes":[{"primitives":[{"mode":4,"attributes":{"POSITION":0,"NORMAL":1,"TEXCOORD_0":2},"indices":3,"material":0}]},{"primitives":[{"mode":4,"attributes":{"POSITION":4,"NORMAL":5,"TEXCOORD_0":6},"indices":7,"material":0}]},{"primitives":[{"mode":4,"attributes":{"POSITION":8,"NORMAL":9,"TEXCOORD_0":10},"indices":11,"material":0}]}]}