{"asset":{"version":"2.0","generator":"Blockbench 4.10.3 glTF exporter"},"scenes":[{"nodes":[2],"name":"blockbench_export"}],"scene":0,"nodes":[{"name":"cuboid","mesh":0},{"translation":[0,2.5,0],"name":"cylinder","mesh":1},{"children":[0,1]}],"bufferViews":[{"buffer":0,"byteOffset":0,"byteLength":672,"target":34962,"byteStride":12},{"buffer":0,"byteOffset":672,"byteLength":672,"target":34962,"byteStride":12},{"buffer":0,"byteOffset":1344,"byteLength":448,"target":34962,"byteStride":8},{"buffer":0,"byteOffset":1792,"byteLength":168,"target":34963},{"buffer":0,"byteOffset":1960,"byteLength":720,"target":34962,"byteStride":12},{"buffer":0,"byteOffset":2680,"byteLength":720,"target":34962,"byteStride":12},{"buffer":0,"byteOffset":3400,"byteLength":480,"target":34962,"byteStride":8},{"buffer":0,"byteOffset":3880,"byteLength":144,"target":34963}],"buffers":[{"byteLength":4024,"uri":"data:application/octet-stream;base64,"}],"accessors":[{"bufferView":0,"componentType":5126,"count":56,"max":[0.1875,2.5,0.1875],"min":[-0.1875,0,-0.1875],"type":"VEC3"},{"bufferView":1,"componentType":5126,"count":56,"max":[1,1,1],"min":[-1,-1,-1],"type":"VEC3"},{"bufferView":2,"componentType":5126,"count":56,"max":[0.3515625,0.609375],"min":[0,0],"type":"VEC2"},{"bufferView":3,"componentType":5123,"count":84,"max":[55],"min":[0],"type":"SCALAR"},{"bufferView":4,"componentType":5126,"count":60,"max":[0.5773502588272095,0.625,0.5],"min":[-0.5773502588272095,0,-0.5],"type":"VEC3"},{"bufferView":5,"componentType":5126,"count":60,"max":[0.8660253882408142,1,1],"min":[-0.8660253882408142,-1,-1],"type":"VEC3"},{"bufferView":6,"componentType":5126,"count":60,"max":[0.3046875,0.3125],"min":[0,0],"type":"VEC2"},{"bufferView":7,"componentType":5123,"count":72,"max":[59],"min":[0],"type":"SCALAR"}],"materials":[{"pbrMetallicRoughness":{"metallicFactor":0,"roughnessFactor":1,"baseColorTexture":{"index":0}},"alphaMode":"MASK","alphaCutoff":0.05,"doubleSided":true}],"textures":[{"sampler":0,"source":0,"name":"texture"}],"samplers":[{"magFilter":9728,"minFilter":9728,"wrapS":33071,"wrapT":33071}],"images":[{"mimeType":"image/png","uri":"data:image/png;base64,"}],"meshes":[{"primitives":[{"mode":4,"attributes":{"POSITION":0,"NORMAL":1,"TEXCOORD_0":2},"indices":3,"material":0}]},{"primitives":[{"mode":4,"attributes":{"POSITION":4,"NORMAL":5,"TEXCOORD_0":6},"indices":7,"material":0}]}]}